<?xml version="1.0" encoding="utf-8"?>
<!-- Generator: Adobe Illustrator 22.0.1, SVG Export Plug-In . SVG Version: 6.00 Build 0)  -->
<svg version="1.1" xmlns="http://www.w3.org/2000/svg" xmlns:xlink="http://www.w3.org/1999/xlink" x="0px" y="0px"
	 viewBox="0 0 1920 1920" style="enable-background:new 0 0 1920 1920;" xml:space="preserve">
<style type="text/css">
	.st0{display:none;}
	.st1{fill:#FFFFFF;}
	.st2{font-family:'MyriadPro-Regular';}
	.st3{font-size:123.273px;}
	.st4{fill:#009EE1;}
</style>
<g id="Capa_1" class="st0">
</g>
<g id="Capa_2">
	<g>
		<path class="st1" d="M21,888h69V720.3c0,0,0.4-12.4,16.9-12.4s19.1,13.1,19.3,16.9s-1,19.1-24.1,19.4V804c0,0,93,8.8,92.7-77
			s-85.3-88-85.3-88S21,634.6,21,711.1S21,888,21,888z"/>
		<path class="st1" d="M324,888h60V774.1c0,0-2.3-63.1-84-63.1s-93,65.3-93,88.5c0,23.1,0,88.5,102,88.5v-66c0,0-3.2,9.2-13.5,9
			s-25.3-9.5-25.5-29.2c-0.2-19.7,14.5-28,25.5-28s28.5,9.5,28.5,24.3C324,813,324,888,324,888z"/>
		<path class="st1" d="M513.1,711.1c0,0-90.1-5.3-90.1,56.9v120h60v-95.5c0,0,0.8-18.5,17.2-18.3c0,0,13,0.5,13,8V711.1z"/>
		<rect x="533.9" y="645.1" class="st1" width="60.1" height="242.9"/>
		<polygon class="st1" points="708,888 659.9,775.1 696.1,711.1 627.3,711.1 599.9,775.4 639,888 		"/>
		<rect x="723" y="711.1" class="st1" width="60" height="176.9"/>
		<path class="st1" d="M751.9,633c0,0,31.1,0.4,31.1,32.6s-31.1,30.5-31.1,30.5s-28.8-0.7-28.8-31.6C723,633.8,751.9,633,751.9,633z
			"/>
		<path class="st1" d="M822,888h63.1V783.3c0,0,1.4-12.3,10.8-12.3c9.3,0,13.2,11.8,13.2,11.8V888h60V768.2c0,0,2-57.1-72-57.1
			S822,771,822,771V888z"/>
		<path class="st1" d="M1098.2,813c0,0-5.1,9.1-12.6,9.1s-23.7-3.3-23.7-27.1s25.5-27,25.5-27s22.7-0.9,22.7,24.2
			c0,25.1,0,87.5,0,87.5s-0.8,32.3-36.3,32.5c0,0-26.9,0.3-27-13.3v64c0,0,17.1,9.4,36,9.3s87.3-16.1,87.3-98.8s0-103.3,0-103.3
			s-1-58.9-81-58.9s-90.3,88.5-90.3,88.5s-7.7,80.5,73,81.8c0,0,14.6,1,26.5-3.7V813z"/>
		<path class="st1" d="M1290.2,645.1h60v66h29.8V783h-29.8c0,0-3.7,38.3,29.8,39.2V888c0,0-89.8,7.4-89.8-82
			S1290.2,645.1,1290.2,645.1z"/>
		<path class="st1" d="M1443.3,633c0,0,32.7-0.5,32.7,31.7c0,32.2-31.7,31.3-31.7,31.3s-31.3-2.3-31.3-30.7
			C1413,637,1443.3,633,1443.3,633z"/>
		<rect x="1413" y="711.1" class="st1" width="63" height="176.9"/>
		<path class="st1" d="M1584.1,815.6c0,0,3.6,12.4,15.4,12.5c11.8,0.1,26.8-7.7,26.6-29.9c-0.2-22.3-20.2-27.3-28.5-27.3
			c-8.3,0-25.6,4.9-25.6,21.2c0,16.2,0,161.9,0,161.9h-60.1V792.3c0,0-2.8-83,85.1-81.3s89,83.7,89,83.7s8.7,93.2-101.9,93.2V815.6z
			"/>
	</g>
	<text transform="matrix(1.2749 0 0 1 226.5 1032.6807)" class="st1 st2 st3">S.A. de C.V.</text>
</g>
<g id="Capa_3">
	<path class="st4" d="M1156.5,703c0,0-22-27.5-63-28s-79,22.5-79,22.5S1081,331,1459,317.5c0,0,399-0.9,425.5,434.1
		c0,0,11.5,456.5-441.4,478.7c0,0-184.1,10.7-346.1-174.3l-111,12.5l95.5-84l171.5,50l-108.5,13.5c0,0,128.5,126,284.5,113
		c0,0,349,10,365.5-376c0,0,23.5-310-329.5-329C1465,456,1231,452,1156.5,703z"/>
</g>
</svg>
